<mxfile host="65bd71144e">
    <diagram id="S38P_l51MJCpwxmYoYfw" name="Page-1">
        <mxGraphModel dx="1354" dy="626" grid="1" gridSize="10" guides="1" tooltips="1" connect="1" arrows="1" fold="1" page="1" pageScale="1" pageWidth="850" pageHeight="1100" math="0" shadow="0">
            <root>
                <mxCell id="0"/>
                <mxCell id="1" parent="0"/>
                <mxCell id="15" value="ReliefCenter  " style="swimlane;fontStyle=1;align=center;verticalAlign=top;childLayout=stackLayout;horizontal=1;startSize=26;horizontalStack=0;resizeParent=1;resizeParentMax=0;resizeLast=0;collapsible=1;marginBottom=0;" vertex="1" parent="1">
                    <mxGeometry x="40" y="40" width="250" height="220" as="geometry"/>
                </mxCell>
                <mxCell id="16" value="-name: String&#10;-address: String&#10;-entries: List&lt;ReliefEntry&gt;" style="text;strokeColor=none;fillColor=none;align=left;verticalAlign=top;spacingLeft=4;spacingRight=4;overflow=hidden;rotatable=0;points=[[0,0.5],[1,0.5]];portConstraint=eastwest;" vertex="1" parent="15">
                    <mxGeometry y="26" width="250" height="64" as="geometry"/>
                </mxCell>
                <mxCell id="17" value="" style="line;strokeWidth=1;fillColor=none;align=left;verticalAlign=middle;spacingTop=-1;spacingLeft=3;spacingRight=3;rotatable=0;labelPosition=right;points=[];portConstraint=eastwest;strokeColor=inherit;" vertex="1" parent="15">
                    <mxGeometry y="90" width="250" height="8" as="geometry"/>
                </mxCell>
                <mxCell id="18" value="+ReliefCenter()&#10;+ReliefCenter(name: String, address: String)&#10;+getName(): String&#10;+setName(name: String): void&#10;+getAddress(): String&#10;+setAddress(address: String): void&#10;+getEntries(): List&lt;ReliefEntry&gt;&#10;+addEntry(entry: ReliefEntry): void" style="text;strokeColor=none;fillColor=none;align=left;verticalAlign=top;spacingLeft=4;spacingRight=4;overflow=hidden;rotatable=0;points=[[0,0.5],[1,0.5]];portConstraint=eastwest;" vertex="1" parent="15">
                    <mxGeometry y="98" width="250" height="122" as="geometry"/>
                </mxCell>
                <mxCell id="19" value="ReliefEntry" style="swimlane;fontStyle=1;align=center;verticalAlign=top;childLayout=stackLayout;horizontal=1;startSize=26;horizontalStack=0;resizeParent=1;resizeParentMax=0;resizeLast=0;collapsible=1;marginBottom=0;" vertex="1" parent="1">
                    <mxGeometry x="320" y="40" width="250" height="210" as="geometry"/>
                </mxCell>
                <mxCell id="20" value="-date: Date&#10;-persons: List&lt;Person&gt;" style="text;strokeColor=none;fillColor=none;align=left;verticalAlign=top;spacingLeft=4;spacingRight=4;overflow=hidden;rotatable=0;points=[[0,0.5],[1,0.5]];portConstraint=eastwest;" vertex="1" parent="19">
                    <mxGeometry y="26" width="250" height="44" as="geometry"/>
                </mxCell>
                <mxCell id="21" value="" style="line;strokeWidth=1;fillColor=none;align=left;verticalAlign=middle;spacingTop=-1;spacingLeft=3;spacingRight=3;rotatable=0;labelPosition=right;points=[];portConstraint=eastwest;strokeColor=inherit;" vertex="1" parent="19">
                    <mxGeometry y="70" width="250" height="8" as="geometry"/>
                </mxCell>
                <mxCell id="22" value="+ReliefEntry()&#10;+ReliefEntry(date: Date)&#10;+getDate(): Date&#10;+setDate(date: Date): void&#10;+getPersons(): List&lt;Person&gt;&#10;+addPerson(person: Person): void&#10;+findPersonByName(name: String): Person" style="text;strokeColor=none;fillColor=none;align=left;verticalAlign=top;spacingLeft=4;spacingRight=4;overflow=hidden;rotatable=0;points=[[0,0.5],[1,0.5]];portConstraint=eastwest;" vertex="1" parent="19">
                    <mxGeometry y="78" width="250" height="132" as="geometry"/>
                </mxCell>
                <mxCell id="23" value="Person" style="swimlane;fontStyle=1;align=center;verticalAlign=top;childLayout=stackLayout;horizontal=1;startSize=26;horizontalStack=0;resizeParent=1;resizeParentMax=0;resizeLast=0;collapsible=1;marginBottom=0;" vertex="1" parent="1">
                    <mxGeometry x="40" y="290" width="410" height="330" as="geometry"/>
                </mxCell>
                <mxCell id="24" value="-name: String&#10;-gender: String&#10;-birthDate: Date&#10;-status: String&#10;-supplies: List&lt;String&gt;" style="text;strokeColor=none;fillColor=none;align=left;verticalAlign=top;spacingLeft=4;spacingRight=4;overflow=hidden;rotatable=0;points=[[0,0.5],[1,0.5]];portConstraint=eastwest;" vertex="1" parent="23">
                    <mxGeometry y="26" width="410" height="94" as="geometry"/>
                </mxCell>
                <mxCell id="25" value="" style="line;strokeWidth=1;fillColor=none;align=left;verticalAlign=middle;spacingTop=-1;spacingLeft=3;spacingRight=3;rotatable=0;labelPosition=right;points=[];portConstraint=eastwest;strokeColor=inherit;" vertex="1" parent="23">
                    <mxGeometry y="120" width="410" height="8" as="geometry"/>
                </mxCell>
                <mxCell id="26" value="+Person()&#10;+Person(name: String, gender: String, birthdate: Date, status: String)&#10;+getName(): String&#10;+setName(name: String): void&#10;+getGender(): String&#10;+setGender(gender: String): void" style="text;strokeColor=none;fillColor=none;align=left;verticalAlign=top;spacingLeft=4;spacingRight=4;overflow=hidden;rotatable=0;points=[[0,0.5],[1,0.5]];portConstraint=eastwest;" vertex="1" parent="23">
                    <mxGeometry y="128" width="410" height="202" as="geometry"/>
                </mxCell>
            </root>
        </mxGraphModel>
    </diagram>
</mxfile>